#!OML:ASF H:\ManfredObstacles\Project 1\Capture day 2\Session 1\male.ASF
:FULLY-SPECIFIED
:DEGREES
183
root 2.32688 7.0698 18.8747 -165.289 -7.63073 178.292
lowerback 44.2434 5.56796 -1.86497
upperback 15.2934 0.0808698 -1.59208
thorax -3.55517 -2.12988 -0.641713
lowerneck -36.3599 -4.64523 -2.53528
upperneck 22.7292 -7.85433 8.05435
head 14.202 -2.36548 1.97958
rclavicle 2.48481e-014 -7.85199e-015
rhumerus 27.5816 6.83322 -60.9167
rradius 55.2414
rwrist 23.9212
rhand -20.4287 -15.2014
rfingers 7.12502
rthumb 5.9259 -45.0985
lclavicle 2.48481e-014 -7.85199e-015
lhumerus 44.9962 -19.6413 47.6323
lradius 48.3388
lwrist -30.6026
lhand -11.7788 14.2242
lfingers 7.12502
lthumb 14.2702 43.7139
rfemur -93.9084 10.273 32.7507
rtibia 149.906
rfoot -41.3063 -34.9017
rtoes -32.1178
lfemur -93.6174 33.1602 -19.3261
ltibia 152.972
lfoot -25.7966 28.4531
ltoes -10.1016
184
root 2.32095 7.08013 18.8161 -165.081 -7.41082 178.241
lowerback 44.2207 5.50381 -1.82883
upperback 15.2359 0.0366712 -1.6081
thorax -3.61351 -2.14027 -0.658089
lowerneck -36.4239 -4.5412 -2.40624
upperneck 22.7363 -7.73039 7.91729
head 14.1939 -2.31975 1.93052
rclavicle -6.75868e-015 1.86858e-014
rhumerus 29.928 5.71498 -61.1246
rradius 52.9996
rwrist 24.1004
rhand -19.3809 -15.0701
rfingers 7.12502
rthumb 6.93747 -44.9364
lclavicle -6.75868e-015 1.86858e-014
lhumerus 46.5292 -18.817 47.8556
lradius 46.5887
lwrist -30.7993
lhand -10.5051 14.0623
lfingers 7.12502
lthumb 15.4972 43.4612
rfemur -93.6312 10.2455 32.8615
rtibia 149.989
rfoot -41.2055 -35.0777
rtoes -32.1775
lfemur -93.3164 33.3197 -19.2118
ltibia 153.042
lfoot -25.5642 28.3574
ltoes -9.8368
185
root 2.3152 7.09171 18.7552 -164.855 -7.20976 178.184
lowerback 44.2087 5.42921 -1.76123
upperback 15.1761 -0.00682506 -1.64205
thorax -3.67701 -2.14692 -0.709561
lowerneck -36.4596 -4.45112 -2.27662
upperneck 22.7392 -7.64055 7.81833
head 14.1841 -2.28386 1.88922
rclavicle -1.86858e-014 1.46107e-014
rhumerus 32.186 4.56632 -61.5133
rradius 50.6562
rwrist 24.2954
rhand -18.3808 -14.9801
rfingers 7.12502
rthumb 7.90276 -44.8124
lclavicle -1.86858e-014 1.46107e-014
lhumerus 48.0379 -18.0041 48.1682
lradius 44.8185
lwrist -30.8949
lhand -9.22539 13.9529
lfingers 7.12502
lthumb 16.7295 43.252
rfemur -93.348 10.2003 32.9634
rtibia 150.066
rfoot -41.079 -35.2622
rtoes -32.1532
lfemur -92.9716 33.4656 -19.0691
ltibia 153.104
lfoot -25.4298 28.2332
ltoes -9.59413
186
root 2.30985 7.10526 18.6914 -164.601 -7.02791 178.126
lowerback 44.1912 5.33724 -1.64214
upperback 15.1101 -0.0456966 -1.70779
thorax -3.74572 -2.14484 -0.822494
lowerneck -36.4584 -4.36845 -2.10552
upperneck 22.7174 -7.58731 7.73375
head 14.1592 -2.25958 1.83853
rclavicle -2.70347e-014 -2.6339e-014
rhumerus 34.3003 3.38026 -62.1129
rradius 48.2479
rwrist 24.6341
rhand -17.4324 -14.9827
rfingers 7.12502
rthumb 8.8181 -44.7784
lclavicle -2.70347e-014 -2.6339e-014
lhumerus 49.5258 -17.2407 48.5531
lradius 43.0387
lwrist -30.9041
lhand -7.93208 13.9183
lfingers 7.12502
lthumb 17.9742 43.1077
rfemur -93.0867 10.1371 33.047
rtibia 150.129
rfoot -40.9652 -35.3699
rtoes -32.0094
lfemur -92.636 33.5904 -18.9419
ltibia 153.145
lfoot -25.2684 28.1225
ltoes -9.31709
187
root 2.30517 7.12166 18.6243 -164.31 -6.86731 178.062
lowerback 44.1689 5.23111 -1.51713
upperback 15.0309 -0.0915239 -1.77658
thorax -3.82823 -2.14276 -0.938697
lowerneck -36.443 -4.30008 -1.96009
upperneck 22.7102 -7.55088 7.67462
head 14.142 -2.24088 1.79887
rclavicle -1.17283e-014 5.14852e-014
rhumerus 36.2834 2.24352 -62.8426
rradius 45.8386
rwrist 25.019
rhand -16.5272 -15.0947
rfingers 7.12502
rthumb 9.69151 -44.8517
lclavicle -1.17283e-014 5.14852e-014
lhumerus 50.9165 -16.4725 49.0997
lradius 41.2405
lwrist -31.0064
lhand -6.68648 13.9549
lfingers 7.12502
lthumb 19.1723 43.0299
rfemur -92.8564 10.0495 33.0918
rtibia 150.173
rfoot -40.9133 -35.3208
rtoes -31.8263
lfemur -92.3069 33.6892 -18.841
ltibia 153.158
lfoot -25.0524 28.0384
ltoes -9.02358
188
root 2.30117 7.14097 18.5536 -163.975 -6.72175 177.987
lowerback 44.132 5.12143 -1.38131
upperback 14.9452 -0.130448 -1.85758
thorax -3.91433 -2.13367 -1.07607
lowerneck -36.423 -4.25776 -1.83515
upperneck 22.6961 -7.55345 7.65587
head 14.1269 -2.23498 1.77019
rclavicle 3.57812e-015 3.15571e-014
rhumerus 38.0853 1.10816 -63.7509
rradius 43.488
rwrist 25.5314
rhand -15.6192 -15.2951
rfingers 7.12502
rthumb 10.5675 -45.0094
lclavicle 3.57812e-015 3.15571e-014
lhumerus 52.2364 -15.736 49.7911
lradius 39.4421
lwrist -31.2326
lhand -5.52677 14.0607
lfingers 7.12502
lthumb 20.2872 43.0212
rfemur -92.6408 9.95247 33.117
rtibia 150.191
rfoot -40.8279 -35.2914
rtoes -31.867
lfemur -92.0181 33.7628 -18.8007
ltibia 153.139
lfoot -24.771 27.9688
ltoes -8.72401
189
root 2.29784 7.16334 18.4791 -163.59 -6.59072 177.909
lowerback 44.0764 5.01037 -1.24392
upperback 14.85 -0.161587 -1.94176
thorax -4.00618 -2.11767 -1.22067
lowerneck -36.3711 -4.23437 -1.73593
upperneck 22.6592 -7.58267 7.6832
head 14.1019 -2.2376 1.75826
rclavicle 1.86858e-014 1.61016e-014
rhumerus 39.6993 0.00016221 -64.7731
rradius 41.2613
rwrist 26.0919
rhand -14.7115 -15.5238
rfingers 7.12502
rthumb 11.443 -45.1916
lclavicle 1.86858e-014 1.61016e-014
lhumerus 53.4396 -15.0203 50.6815
lradius 37.6808
lwrist -31.6452
lhand -4.4951 14.2116
lfingers 7.12502
lthumb 21.2785 43.0635
rfemur -92.4271 9.84839 33.1263
rtibia 150.181
rfoot -40.7585 -35.2431
rtoes -32.0729
lfemur -91.7559 33.8155 -18.8033
ltibia 153.09
lfoot -24.4498 27.917
ltoes -8.42569
190
root 2.29534 7.18924 18.4003 -163.155 -6.46681 177.832
lowerback 43.9926 4.90615 -1.14535
upperback 14.7476 -0.191177 -2.0039
thorax -4.09906 -2.10146 -1.32299
lowerneck -36.3362 -4.21968 -1.68885
upperneck 22.6267 -7.60457 7.7357
head 14.0851 -2.23746 1.7667
rclavicle -1.19271e-015 1.38652e-014
rhumerus 41.1432 -1.0027 -65.834
rradius 39.2059
rwrist 26.6457
rhand -13.84 -15.741
rfingers 7.12502
rthumb 12.2834 -45.3602
lclavicle -1.19271e-015 1.38652e-014
lhumerus 54.4599 -14.281 51.8123
lradius 36.0044
lwrist -32.2937
lhand -3.65828 14.3644
lfingers 7.12502
lthumb 22.0821 43.1236
rfemur -92.2068 9.74874 33.1316
rtibia 150.135
rfoot -40.7206 -35.1756
rtoes -32.4677
lfemur -91.5184 33.8616 -18.8309
ltibia 153.007
lfoot -24.119 27.8495
ltoes -8.14376
191
root 2.29375 7.21917 18.317 -162.667 -6.3441 177.754
lowerback 43.8823 4.8135 -1.11134
upperback 14.6328 -0.22273 -2.03333
thorax -4.19899 -2.08794 -1.35706
lowerneck -36.2902 -4.20081 -1.69682
upperneck 22.5786 -7.59431 7.80435
head 14.0608 -2.22697 1.79766
rclavicle -3.04141e-014 -3.24019e-014
rhumerus 42.415 -1.85559 -66.8812
rradius 37.3585
rwrist 27.1916
rhand -13.0137 -15.9141
rfingers 7.12502
rthumb 13.08 -45.4839
lclavicle -3.04141e-014 -3.24019e-014
lhumerus 55.2648 -13.5016 53.1852
lradius 34.4602
lwrist -33.2094
lhand -3.0074 14.4385
lfingers 7.12502
lthumb 22.7069 43.1225
rfemur -91.9775 9.65973 33.1313
rtibia 150.049
rfoot -40.6955 -35.1075
rtoes -33.0105
lfemur -91.2972 33.9058 -18.8867
ltibia 152.884
lfoot -23.7833 27.7695
ltoes -7.89351
